#!OML:ASF Y:\EmotionMaleHayes\Project 1\Capture day 1\Session 1\Male1.ASF
:FULLY-SPECIFIED
:DEGREES
837
root 40.7756 17.0082 1.29043 949.524 81.0368 954.762
lowerback 6.83216 3.76646 7.81514
upperback 1.66223 5.64254 1.02756
thorax -1.44768 2.83177 -3.71335
lowerneck -16.6296 -9.75714 -7.76063
upperneck 18.7109 -11.9107 2.47011
head 9.24106 -5.83899 0.521545
rclavicle 3.96824e-014 2.42517e-014
rhumerus -25.3939 13.6277 -81.8141
rradius 50.8257
rwrist -6.33758
rhand -10.273 -32.5207
rfingers 7.12502
rthumb 15.7207 -61.9022
lclavicle 3.96824e-014 2.42517e-014
lhumerus -44.2789 -5.81396 86.8278
lradius 31.7432
lwrist -2.34389
lhand -14.4069 -23.1797
lfingers 7.12502
lthumb 11.7367 6.47153
rfemur 16.0112 -10.6751 27.7542
rtibia 2.66975
rfoot -16.3104 1.95036
rtoes 9.11903
lfemur -13.3692 1.9509 -3.07223
ltibia 13.1917
lfoot -5.96939 6.82825
ltoes 5.57342
838
root 40.8407 17.0044 1.26853 945.383 81.9347 950.262
lowerback 6.56863 3.86352 6.76229
upperback 1.60395 5.66165 0.714952
thorax -1.42994 2.83822 -3.44031
lowerneck -16.7022 -9.81992 -7.93546
upperneck 18.8597 -11.9577 2.50822
head 9.32294 -5.86592 0.546069
rclavicle 3.02774e-014 1.03368e-014
rhumerus -25.5257 13.8071 -82.0536
rradius 51.1254
rwrist -6.49283
rhand -10.4295 -32.3454
rfingers 7.12502
rthumb 15.57 -61.7387
lclavicle 3.02774e-014 1.03368e-014
lhumerus -44.368 -5.80244 87.023
lradius 31.6459
lwrist -2.50416
lhand -14.1562 -23.4602
lfingers 7.12502
lthumb 11.9785 6.17701
rfemur 16.0587 -10.8565 26.1858
rtibia 2.68619
rfoot -16.2891 2.50029
rtoes 9.60197
lfemur -13.3503 1.33306 -4.50094
ltibia 11.9756
lfoot -5.70188 6.98811
ltoes 4.62264
839
root 40.9076 16.9917 1.25099 947.597 81.7796 952.488
lowerback 6.55186 3.86735 7.17209
upperback 1.60794 5.69563 0.772134
thorax -1.37841 2.8573 -3.60609
lowerneck -16.837 -9.90758 -7.91566
upperneck 18.9953 -12.0642 2.45014
head 9.39475 -5.91698 0.498203
rclavicle 8.25578e-014 3.18055e-015
rhumerus -25.6372 14.0169 -82.3552
rradius 51.4032
rwrist -6.34527
rhand -10.0751 -32.4386
rfingers 7.12502
rthumb 15.9113 -61.805
lclavicle 8.25578e-014 3.18055e-015
lhumerus -44.465 -5.76973 87.1172
lradius 31.6387
lwrist -2.83987
lhand -14.034 -23.5936
lfingers 7.12502
lthumb 12.0964 6.03675
rfemur 16.3464 -11.0374 26.3654
rtibia 2.6763
rfoot -16.2511 2.91951
rtoes 9.97881
lfemur -13.0557 1.10605 -4.07652
ltibia 11.0291
lfoot -5.54663 6.82204
ltoes 5.9729
840
root 40.9579 16.9894 1.25333 950.496 81.8851 955.457
lowerback 6.92206 3.95719 7.20428
upperback 1.52967 5.8543 0.814032
thorax -1.64905 2.92398 -3.62512
lowerneck -16.2936 -9.76346 -7.84406
upperneck 18.4859 -11.9556 2.63282
head 9.12197 -5.85551 0.602677
rclavicle -1.0871e-014 5.56597e-015
rhumerus -25.8803 14.1867 -82.7463
rradius 51.727
rwrist -6.19266
rhand -9.68412 -32.5634
rfingers 7.12502
rthumb 16.2878 -61.8993
lclavicle -1.0871e-014 5.56597e-015
lhumerus -44.7082 -6.10573 87.3543
lradius 31.7669
lwrist -2.79088
lhand -13.9439 -23.3195
lfingers 7.12502
lthumb 12.1832 6.30574
rfemur 16.4853 -9.7805 27.0552
rtibia 2.63803
rfoot -16.5431 2.00126
rtoes 9.8714
lfemur -12.766 0.880525 -3.52886
ltibia 10.2734
lfoot -5.50769 7.05616
ltoes 7.1528
841
root 41.0396 16.982 1.22959 952.62 81.4489 957.416
lowerback 6.522 3.88344 7.83087
upperback 1.52541 5.76833 0.932879
thorax -1.39076 2.89055 -3.8065
lowerneck -16.2716 -9.71709 -7.82305
upperneck 18.4239 -11.8958 2.62732
head 9.09164 -5.82788 0.608883
rclavicle 3.58185e-014 1.15295e-014
rhumerus -25.9995 14.4205 -83.071
rradius 51.932
rwrist -6.13276
rhand -9.45738 -32.484
rfingers 7.12502
rthumb 16.5061 -61.8019
lclavicle 3.58185e-014 1.15295e-014
lhumerus -44.8733 -6.24197 87.6055
lradius 31.8287
lwrist -2.78205
lhand -13.6782 -22.9613
lfingers 7.12502
lthumb 12.4394 6.6485
rfemur 16.6138 -10.3735 27.3439
rtibia 2.6853
rfoot -16.5923 2.70674
rtoes 9.66213
lfemur -12.7224 0.765924 -3.00559
ltibia 9.62995
lfoot -5.16078 6.85355
ltoes 6.40187
842
root 41.1005 16.9801 1.22065 954.567 81.4952 959.351
lowerback 6.57101 3.89336 7.86064
upperback 1.5449 5.79042 1.00304
thorax -1.3996 2.90222 -3.75484
lowerneck -16.5786 -9.74472 -7.75753
upperneck 18.6648 -11.8915 2.44506
head 9.21313 -5.83404 0.519007
rclavicle -1.13432e-014 1.35174e-014
rhumerus -26.0062 14.734 -83.3687
rradius 52.0766
rwrist -6.01047
rhand -9.35405 -32.2628
rfingers 7.12502
rthumb 16.6056 -61.5724
lclavicle -1.13432e-014 1.35174e-014
lhumerus -44.8936 -6.24183 87.793
lradius 31.7281
lwrist -2.87046
lhand -13.3531 -22.8748
lfingers 7.12502
lthumb 12.7529 6.71575
rfemur 16.7628 -9.65878 27.7161
rtibia 2.67552
rfoot -16.9245 2.24939
rtoes 8.85034
lfemur -12.4774 0.566121 -2.73065
ltibia 9.19281
lfoot -4.99268 6.83647
ltoes 6.40354
843
root 41.2023 16.9718 1.18434 951.381 82.1197 955.846
lowerback 5.78449 3.89472 7.23253
upperback 1.59593 5.66506 0.729302
thorax -0.956694 2.85593 -3.61737
lowerneck -16.5832 -9.72302 -7.7516
upperneck 18.6526 -11.8728 2.48852
head 9.21118 -5.82033 0.535438
rclavicle 2.19906e-015 1.07344e-014
rhumerus -26.1918 15.0355 -83.7571
rradius 52.3075
rwrist -6.00128
rhand -9.55109 -32.0466
rfingers 7.12502
rthumb 16.4159 -61.372
lclavicle 2.19906e-015 1.07344e-014
lhumerus -44.9814 -6.48634 87.991
lradius 31.6374
lwrist -2.88005
lhand -13.1338 -22.9497
lfingers 7.12502
lthumb 12.9642 6.62752
rfemur 17.1342 -10.8592 25.9696
rtibia 2.57467
rfoot -16.8009 3.75731
rtoes 8.3606
lfemur -12.1748 0.0365945 -3.99626
ltibia 8.45268
lfoot -4.80063 6.60627
ltoes 5.74879
844
root 41.2791 16.9637 1.15405 951.791 82.2497 956.049
lowerback 5.60938 3.87615 7.28159
upperback 1.45714 5.62848 0.64949
thorax -0.994297 2.83103 -3.71726
lowerneck -16.6902 -9.67945 -7.66627
upperneck 18.8661 -11.8067 2.38158
head 9.2884 -5.79111 0.486919
rclavicle 5.26904e-014 -2.78299e-015
rhumerus -26.546 15.3201 -84.1931
rradius 52.4482
rwrist -6.00148
rhand -9.52441 -31.9557
rfingers 7.12502
rthumb 16.4416 -61.279
lclavicle 5.26904e-014 -2.78299e-015
lhumerus -45.2246 -6.45059 88.0592
lradius 31.5604
lwrist -3.2316
lhand -12.9823 -23.0541
lfingers 7.12502
lthumb 13.1103 6.51377
rfemur 17.3317 -11.6164 25.3105
rtibia 2.62358
rfoot -16.6511 4.90275
rtoes 8.53393
lfemur -11.9875 -0.340672 -4.27302
ltibia 7.93104
lfoot -4.35282 6.38589
ltoes 2.53269
845
root 41.3464 16.9597 1.13969 954.856 82.2974 959.094
lowerback 5.42598 3.92568 7.3805
upperback 1.63324 5.68153 0.753845
thorax -0.70427 2.87456 -3.6414
lowerneck -16.6717 -9.53227 -7.59154
upperneck 18.487 -11.6313 2.4479
head 9.14352 -5.70208 0.533124
rclavicle 7.88927e-015 1.43125e-014
rhumerus -26.3774 15.4872 -84.3896
rradius 52.5486
rwrist -5.97742
rhand -9.2306 -31.8229
rfingers 7.12502
rthumb 16.7245 -61.1225
lclavicle 7.88927e-015 1.43125e-014
lhumerus -44.9131 -6.31032 88.1626
lradius 31.3994
lwrist -3.54198
lhand -12.8019 -23.068
lfingers 7.12502
lthumb 13.2841 6.48862
rfemur 17.5379 -10.9798 25.6689
rtibia 2.59265
rfoot -16.8482 4.76574
rtoes 8.85562
lfemur -11.6586 -0.625424 -3.92787
ltibia 7.70068
lfoot -4.04691 6.30662
ltoes 0.479026
846
root 41.4191 16.9576 1.12041 957.172 82.2922 961.293
lowerback 5.50144 3.90403 7.46628
upperback 1.32399 5.67558 0.817744
thorax -1.06629 2.8476 -3.64504
lowerneck -16.0663 -9.41519 -7.6906
upperneck 18.3834 -11.5118 2.56695
head 9.00835 -5.64919 0.635078
rclavicle 6.47293e-015 -1.19271e-014
rhumerus -27.1936 15.5214 -84.9024
rradius 52.9077
rwrist -5.82198
rhand -8.75343 -31.7147
rfingers 7.12502
rthumb 17.1838 -60.9749
lclavicle 6.47293e-015 -1.19271e-014
lhumerus -45.5356 -6.40322 88.3643
lradius 31.3665
lwrist -3.46933
lhand -12.6416 -23.1156
lfingers 7.12502
lthumb 13.4386 6.4309
rfemur 17.6324 -10.535 25.9254
rtibia 2.63376
rfoot -17.133 4.66488
rtoes 8.87343
lfemur -11.4191 -0.912665 -3.70798
ltibia 7.67099
lfoot -3.85288 5.97576
ltoes 2.04369
847
root 41.4996 16.9591 1.10321 959.675 82.0429 963.629
lowerback 5.01798 3.89004 7.7947
upperback 1.51734 5.62643 0.930566
thorax -0.581199 2.84872 -3.65634
lowerneck -16.6092 -9.3974 -7.57827
upperneck 18.4072 -11.4695 2.52799
head 9.10077 -5.61884 0.585981
rclavicle 3.70485e-014 1.98785e-014
rhumerus -26.9185 15.4878 -85.0725
rradius 52.9939
rwrist -5.61442
rhand -8.13937 -31.7101
rfingers 7.12502
rthumb 17.7747 -60.9178
lclavicle 3.70485e-014 1.98785e-014
lhumerus -45.1213 -6.44767 88.4762
lradius 31.1006
lwrist -3.58595
lhand -12.5759 -23.2433
lfingers 7.12502
lthumb 13.502 6.29898
rfemur 17.7003 -10.2014 26.4305
rtibia 2.59639
rfoot -17.3531 4.55471
rtoes 9.05527
lfemur -11.2131 -1.03192 -3.27408
ltibia 7.65226
lfoot -3.69547 5.37099
ltoes 4.23635
848
root 41.5706 16.9634 1.07536 957.557 82.7939 961.106
lowerback 4.82168 3.9223 7.03332
upperback 1.28655 5.61039 0.647062
thorax -0.757931 2.8232 -3.52591
lowerneck -16.6979 -9.37546 -7.44596
upperneck 18.6256 -11.4337 2.36019
head 9.17122 -5.60748 0.506739
rclavicle -5.62809e-014 -6.36111e-015
rhumerus -27.2513 15.5562 -85.4911
rradius 52.9323
rwrist -5.55797
rhand -8.01598 -31.5056
rfingers 7.12502
rthumb 17.8935 -60.7024
lclavicle -5.62809e-014 -6.36111e-015
lhumerus -45.3137 -6.5383 88.5514
lradius 30.8797
lwrist -3.87304
lhand -12.3486 -23.2402
lfingers 7.12502
lthumb 13.721 6.28745
rfemur 17.65 -10.1667 25.2736
rtibia 2.55277
rfoot -17.2761 4.87811
rtoes 8.70113
lfemur -11.2509 -1.52091 -4.4473
ltibia 7.75869
lfoot -3.82634 5.08498
ltoes 3.99245
849
root 41.6276 16.9546 1.0613 964.451 81.8664 968.356
lowerback 5.47341 3.89419 8.31827
upperback 1.15199 5.72128 0.963962
thorax -1.15564 2.8613 -3.96867
lowerneck -16.592 -9.32189 -7.31898
upperneck 18.7613 -11.3855 2.28427
head 9.18402 -5.58405 0.471461
rclavicle -3.06874e-015 1.19271e-015
rhumerus -27.7022 15.5778 -85.9945
rradius 52.9053
rwrist -5.50062
rhand -8.06099 -31.2968
rfingers 7.12502
rthumb 17.8502 -60.4976
lclavicle -3.06874e-015 1.19271e-015
lhumerus -45.5655 -6.64468 88.5891
lradius 30.7094
lwrist -4.00825
lhand -12.0112 -23.1246
lfingers 7.12502
lthumb 14.0462 6.38074
rfemur 18.0407 -9.18516 27.0683
rtibia 2.51045
rfoot -17.2165 4.21533
rtoes 7.99761
lfemur -10.6341 -1.61191 -2.75955
ltibia 7.92241
lfoot -3.70955 4.62651
ltoes 3.17621
850
root 41.7119 16.9563 1.02118 962.037 82.9157 965.521
lowerback 4.92546 3.91172 7.28982
upperback 1.03024 5.62593 0.631535
thorax -1.0534 2.81199 -3.70469
lowerneck -16.5781 -9.25541 -7.27008
upperneck 18.9017 -11.2956 2.22376
head 9.21906 -5.54363 0.454531
rclavicle 4.83295e-014 -7.55382e-015
rhumerus -28.1683 15.6237 -86.4291
rradius 53.0016
rwrist -5.37666
rhand -7.78851 -31.5133
rfingers 7.12502
rthumb 18.1123 -60.6899
lclavicle 4.83295e-014 -7.55382e-015
lhumerus -45.7632 -6.51849 88.5815
lradius 30.6402
lwrist -4.31587
lhand -11.6779 -22.9981
lfingers 7.12502
lthumb 14.3674 6.4847
rfemur 18.0565 -9.4791 25.314
rtibia 2.55439
rfoot -16.9035 5.0463
rtoes 8.44098
lfemur -10.4646 -2.22574 -4.36496
ltibia 7.50516
lfoot -3.02534 4.63686
ltoes 3.56479
851
root 41.7957 16.9598 0.992551 964.183 83.0292 967.433
lowerback 4.6242 3.94271 7.28048
upperback 0.914838 5.6435 0.63825
thorax -1.00444 2.81855 -3.67383
lowerneck -16.659 -9.21719 -7.21605
upperneck 19.0435 -11.2224 2.08925
head 9.26756 -5.51777 0.405196
rclavicle 4.92613e-015 5.56597e-015
rhumerus -28.5769 15.6196 -86.768
rradius 53.0398
rwrist -5.34941
rhand -7.62098 -31.7079
rfingers 7.12502
rthumb 18.2735 -60.8695
lclavicle 4.92613e-015 5.56597e-015
lhumerus -45.8546 -6.41913 88.6041
lradius 30.5443
lwrist -4.85985
lhand -11.2398 -22.828
lfingers 7.12502
lthumb 14.7895 6.62428
rfemur 18.1545 -9.23221 25.22
rtibia 2.50855
rfoot -16.929 5.30301
rtoes 8.15351
lfemur -10.1656 -2.40967 -4.42316
ltibia 6.99976
lfoot -1.94376 4.76543
ltoes 5.74118
